#!OML:ASF E:\emotionWalksFemale\Project 1\Capture day 1\Session 1\Female1.ASF
:FULLY-SPECIFIED
:DEGREES
2235
root 20.603 15.6531 -34.8195 -1073.03 63.4721 -350.715
lowerback 5.87206 -1.45966 1.69304
upperback -5.7849 -1.69138 0.560068
thorax -9.46135 -0.89376 -0.121182
lowerneck -12.3414 -4.17309 -6.27864
upperneck 27.2817 -5.85569 6.13793
head 11.2435 -2.42894 2.56301
rclavicle 1.11319e-014 3.97569e-015
rhumerus 22.5712 10.3807 -39.1694
rradius 29.6999
rwrist 20.1854
rhand -5.61316 -35.2507
rfingers 7.12502
rthumb 20.2042 -424.22
lclavicle 1.11319e-014 3.97569e-015
lhumerus 27.6831 -20.6203 47.5471
lradius 31.5437
lwrist -26.6313
lhand -12.4813 -54.9334
lfingers 7.12502
lthumb 13.5931 -25.3972
rfemur 2.80584 25.2781 28.3311
rtibia 19.8719
rfoot -14.288 -24.1994
rtoes 21.4033
lfemur -22.839 -26.3633 -5.53284
ltibia 29.2882
lfoot -29.5383 17.4065
ltoes -19.378
2236
root 20.6639 15.6505 -34.8151 -1073.58 62.2975 -351.263
lowerback 5.84827 -1.48131 1.60975
upperback -5.76589 -1.72044 0.681671
thorax -9.41989 -0.89759 0.0575629
lowerneck -12.1302 -4.16836 -6.30032
upperneck 27.1143 -5.81317 5.98543
head 11.13 -2.43997 2.51569
rclavicle 1.70955e-014 2.14687e-014
rhumerus 22.9317 10.6708 -39.0818
rradius 29.6343
rwrist 20.0506
rhand -5.60311 -35.463
rfingers 7.12502
rthumb 20.2138 -424.431
lclavicle 1.70955e-014 2.14687e-014
lhumerus 27.5302 -20.244 47.8745
lradius 31.3065
lwrist -26.6173
lhand -12.1208 -55.1893
lfingers 7.12502
lthumb 13.9406 -25.6767
rfemur 2.93264 25.1855 28.2481
rtibia 19.9005
rfoot -14.3362 -23.1886
rtoes 21.6586
lfemur -22.9121 -27.2816 -5.24622
ltibia 29.0337
lfoot -29.4603 16.0811
ltoes -11.8786
2237
root 20.7248 15.655 -34.804 -1073.97 61.1005 -351.73
lowerback 5.69715 -1.51608 1.45277
upperback -5.75137 -1.77753 0.794645
thorax -9.30554 -0.910539 0.268408
lowerneck -11.9416 -4.15851 -5.98572
upperneck 26.8723 -5.7551 5.52278
head 10.9707 -2.44755 2.29828
rclavicle -2.62396e-014 -6.36111e-015
rhumerus 23.2692 10.6538 -39.3279
rradius 29.566
rwrist 20.51
rhand -5.43373 -35.1789
rfingers 7.12502
rthumb 20.3766 -424.13
lclavicle -2.62396e-014 -6.36111e-015
lhumerus 27.3049 -20.6517 47.6111
lradius 31.8428
lwrist -25.8064
lhand -12.1463 -54.0645
lfingers 7.12502
lthumb 13.916 -24.5501
rfemur 2.979 25.1583 28.1385
rtibia 19.9284
rfoot -14.335 -22.1856
rtoes 21.9985
lfemur -23.0654 -28.0431 -4.93642
ltibia 28.8173
lfoot -29.7034 17.1001
ltoes -13.726
2238
root 20.7849 15.6667 -34.8031 -1074.32 59.9581 -352.181
lowerback 5.71365 -1.56713 1.58137
upperback -5.78246 -1.83122 0.813974
thorax -9.35421 -0.944778 0.225678
lowerneck -12.111 -4.23376 -6.39641
upperneck 27.0091 -5.85212 5.80809
head 11.087 -2.49909 2.4583
rclavicle -7.69297e-014 -2.54444e-014
rhumerus 23.7374 9.83411 -40.5685
rradius 28.9245
rwrist 22.2397
rhand -5.36097 -34.8647
rfingers 7.12502
rthumb 20.4466 -423.808
lclavicle -7.69297e-014 -2.54444e-014
lhumerus 27.2452 -20.3573 47.8484
lradius 31.6144
lwrist -25.9048
lhand -12.0364 -53.6768
lfingers 7.12502
lthumb 14.0219 -24.1698
rfemur 2.73885 23.954 27.728
rtibia 20.046
rfoot -14.2443 -20.2483
rtoes 20.5185
lfemur -23.2062 -28.4248 -4.72295
ltibia 28.5166
lfoot -29.8209 18.0445
ltoes -16.7108
2239
root 20.8436 15.6681 -34.8026 -1074.68 58.7605 -352.608
lowerback 5.76124 -1.56777 1.56792
upperback -5.82443 -1.82686 0.875331
thorax -9.42607 -0.939463 0.300169
lowerneck -12.0356 -4.33272 -6.59574
upperneck 26.9615 -5.96394 5.82809
head 11.0703 -2.57357 2.48387
rclavicle -4.1546e-014 -1.11319e-014
rhumerus 23.5971 11.1862 -39.218
rradius 29.7542
rwrist 20.5891
rhand -5.31108 -35.1867
rfingers 7.12502
rthumb 20.4945 -424.125
lclavicle -4.1546e-014 -1.11319e-014
lhumerus 27.1239 -20.4073 47.8594
lradius 31.7254
lwrist -25.7799
lhand -12.2839 -53.5577
lfingers 7.12502
lthumb 13.7834 -24.0343
rfemur 2.79428 24.7349 27.8743
rtibia 20.228
rfoot -13.9599 -20.3921
rtoes 17.3799
lfemur -23.2476 -28.6007 -4.5483
ltibia 28.2206
lfoot -30.3359 18.4319
ltoes -16.5938
